/* XPM */
static char * menu_active_xpm[] = {
"17 7 3 1",
" 	c None",
".	c #000000",
"+	c #999999",
".................",
"+++++++++++++++++",
"+++++++++++++++++",
"+++++++++++++++++",
"+++++++++++++++++",
"+++++++++++++++++",
"................."};
