/* XPM */
static char * bottom_left_active_xpm[] = {
"19 19 40 1",
" 	c None",
".	c #3C3C3C",
"+	c #5B5D5F",
"@	c #5B5C5F",
"#	c #585C5F",
"$	c #848484",
"%	c #AFAFAF",
"&	c #B0B0B0",
"*	c #B5B5B5",
"=	c #B4B4B4",
"-	c #B9B9B9",
";	c #9DA5BA",
">	c #A2B2C5",
",	c #858585",
"'	c #878787",
")	c #969696",
"!	c #707070",
"~	c #717171",
"{	c #5F5F5F",
"]	c #5D5F64",
"^	c #797979",
"/	c #4F4F4F",
"(	c #6E6E6E",
"_	c #494949",
":	c #696969",
"<	c #A5A5A5",
"[	c #4E4E4E",
"}	c #616161",
"|	c #7F7F7F",
"1	c #545454",
"2	c #555555",
"3	c #7D7D7D",
"4	c #E6E7E6",
"5	c #4E5C82",
"6	c #4E5A82",
"7	c #5B637A",
"8	c #556185",
"9	c #556187",
"0	c #646464",
"a	c #818181",
".+@#$.             ",
".%&%$.             ",
".*=-$.             ",
".;;>$.             ",
".,')$.             ",
".!~'$.             ",
".{]^$.             ",
".//($.             ",
".__:$.             ",
".__:$.             ",
".__:$.             ",
".__:$.             ",
".__:<.             ",
".[[}|..............",
".111121122111111134",
".5566555655556555|4",
".7778897777777797$4",
".0000000000000000a4",
"..................."};
