/* XPM */
static char * bottom_right_active_xpm[] = {
"19 19 45 1",
" 	c None",
".	c #3C3C3C",
"+	c #767676",
"@	c #585C5F",
"#	c #5B5D5F",
"$	c #B0B0B0",
"%	c #BBBBBB",
"&	c #B5B5B5",
"*	c #AAAAAA",
"=	c #9E9FA2",
"-	c #989898",
";	c #878787",
">	c #858585",
",	c #898989",
"'	c #707070",
")	c #717171",
"!	c #7B7B7B",
"~	c #5F5F5F",
"{	c #6F6F6F",
"]	c #4F4F4F",
"^	c #6A6A6A",
"/	c #334571",
"(	c #696969",
"_	c #7F7F7F",
":	c #5C5C5C",
"<	c #434755",
"[	c #4D4D4D",
"}	c #4E4E4E",
"|	c #D4D6D7",
"1	c #727272",
"2	c #545454",
"3	c #555555",
"4	c #CBCBCE",
"5	c #777777",
"6	c #5B5B5B",
"7	c #5A5A5A",
"8	c #C4C3C6",
"9	c #616161",
"0	c #5E6065",
"a	c #606060",
"b	c #A8A9AA",
"c	c #7D7D7D",
"d	c #63656B",
"e	c #616778",
"f	c #5E6785",
"             .+@##.",
"             .+$$$.",
"             .+%&&.",
"             .+*==.",
"             .+-;>.",
"             .+,').",
"             .+!~~.",
"             .+{]].",
"             .+^//.",
"             .+^//.",
"             .+(//.",
"             .+(//.",
"             ._:<<.",
"..............[}}}.",
"|12222223223222222.",
"456666766676667666.",
"8!9099a9a99990aa99.",
"bcdddeeddfdedededd.",
"..................."};
