/* XPM */
static char * close_active_xpm[] = {
"20 25 167 2",
"  	c None",
". 	c #ECECEC",
"+ 	c #E8E8E8",
"@ 	c #D8D8D8",
"# 	c #CBCBCB",
"$ 	c #C2C2C2",
"% 	c #BBBBBB",
"& 	c #BDBDBD",
"* 	c #C5C5C5",
"= 	c #D0D0D0",
"- 	c #E0E0E0",
"; 	c #EBEBEB",
"> 	c #CDCDCD",
", 	c #BFBFBF",
"' 	c #BCBBBC",
") 	c #BABABA",
"! 	c #C4C4C4",
"~ 	c #D5D5D5",
"{ 	c #EAEAEA",
"] 	c #D9D9D9",
"^ 	c #C3C3C3",
"/ 	c #B8B8B8",
"( 	c #B1B1B1",
"_ 	c #ADADAD",
": 	c #ACACAD",
"< 	c #B2B2B2",
"[ 	c #B9BAB9",
"} 	c #BCBBBB",
"| 	c #E4E4E4",
"1 	c #EAEBEA",
"2 	c #DAD9DA",
"3 	c #C0C0C1",
"4 	c #BDBDBC",
"5 	c #AEADAD",
"6 	c #A3A3A3",
"7 	c #B2B2B3",
"8 	c #A6A6A7",
"9 	c #9F9F9F",
"0 	c #AFAEAE",
"a 	c #BCBCBC",
"b 	c #CBCACB",
"c 	c #E5E5E5",
"d 	c #E2E2E2",
"e 	c #C8C7C8",
"f 	c #A8A8A7",
"g 	c #B5B5B4",
"h 	c #DADADA",
"i 	c #E6E6E6",
"j 	c #E9E9E9",
"k 	c #E5E6E5",
"l 	c #DFDFDE",
"m 	c #A1A1A2",
"n 	c #A8A9A9",
"o 	c #C1C2C0",
"p 	c #C1C1C0",
"q 	c #D3D3D3",
"r 	c #D4D4D4",
"s 	c #C7C6C6",
"t 	c #ABABAB",
"u 	c #C0C0C0",
"v 	c #F1F1F1",
"w 	c #F8F8F8",
"x 	c #F7F7F7",
"y 	c #F6F6F6",
"z 	c #F6F7F7",
"A 	c #F2F2F2",
"B 	c #A8A8A8",
"C 	c #AEAEAE",
"D 	c #C6C6C6",
"E 	c #CACACA",
"F 	c #DFDFDF",
"G 	c #CFCECF",
"H 	c #CDCCCC",
"I 	c #B5B5B5",
"J 	c #E4E6EA",
"K 	c #747474",
"L 	c #EFEFEF",
"M 	c #858585",
"N 	c #CCCCCC",
"O 	c #A2A2A2",
"P 	c #DEDEDE",
"Q 	c #D0CFCF",
"R 	c #B0B0B0",
"S 	c #D6D6D6",
"T 	c #EAEAEB",
"U 	c #7F7F7F",
"V 	c #5A5A5A",
"W 	c #ADAFB4",
"X 	c #595959",
"Y 	c #787878",
"Z 	c #AFAFAF",
"` 	c #E7E7E7",
" .	c #DFDEDE",
"..	c #DAD9D9",
"+.	c #D4D3D3",
"@.	c #E0E0E1",
"#.	c #666666",
"$.	c #5E5E5E",
"%.	c #D4D5D4",
"&.	c #A1A1A1",
"*.	c #DCDCDC",
"=.	c #D8D8D9",
"-.	c #E1E1E1",
";.	c #DFDFE0",
">.	c #D9D8D9",
",.	c #676767",
"'.	c #616161",
").	c #C8C8C8",
"!.	c #C1C1C1",
"~.	c #C7C7C7",
"{.	c #ABACAC",
"].	c #A4A5A5",
"^.	c #E3E3E3",
"/.	c #E7E5E6",
"(.	c #E1DFE0",
"_.	c #B3B3B2",
":.	c #D3D4D4",
"<.	c #585858",
"[.	c #5F5F5F",
"}.	c #C3C3C4",
"|.	c #ACABAB",
"1.	c #A5A5A5",
"2.	c #E9EAEA",
"3.	c #ECECEB",
"4.	c #ACACAB",
"5.	c #CCCDCD",
"6.	c #606060",
"7.	c #C8C9C8",
"8.	c #C9CAC9",
"9.	c #AAAAA9",
"0.	c #EFF0EF",
"a.	c #F0F0F1",
"b.	c #C0C3CB",
"c.	c #BDC2CB",
"d.	c #C1C2C1",
"e.	c #AAAAAA",
"f.	c #F3F4F4",
"g.	c #ECEDEC",
"h.	c #EEEEED",
"i.	c #F8F7F7",
"j.	c #DDDCDB",
"k.	c #D5D5D6",
"l.	c #EDEEEE",
"m.	c #F6F5F5",
"n.	c #DDDDDD",
"o.	c #F9F8F8",
"p.	c #F9F9F9",
"q.	c #B3B2B3",
"r.	c #D7D7D7",
"s.	c #B5B4B5",
"t.	c #FDFDFD",
"u.	c #DBDBDB",
"v.	c #FEFEFE",
"w.	c #FCFBFC",
"x.	c #CFCFCF",
"y.	c #B3B3B3",
"z.	c #D2D2D2",
"A.	c #DCDDDC",
"B.	c #FFFFFF",
"C.	c #EDEDED",
"D.	c #FCFCFC",
"E.	c #BEBEBE",
"F.	c #F0F0F0",
"G.	c #F3F3F3",
"H.	c #D1D1D1",
"I.	c #FBFBFB",
"J.	c #F5F5F5",
"                                        ",
"                                        ",
"                                        ",
". . . . . + @ # $ % & * = - ; . . . . . ",
". . . ; - > , ' ) % % % & ! ~ + . . . . ",
". . { ] ^ ) % / ( _ : < [ } % # | . . . ",
"; 1 2 3 4 } 5 6 _ 7 ( 8 9 0 & a b c ; ; ",
"{ d e $ 4 f g h i j k l * m n o p q j { ",
"+ r s ^ t u v w x y z w A ~ B C D E F j ",
"d G H % I J K 9 L L L 6 M A N O ^ N r + ",
"P q Q R S T U V W + r X Y j @ Z C r ~ ` ",
" ...+.C - @.- #.X ^ V $.%.N D t &.*.=.i ",
"-.;.>.g *.] ] ] ,.X '.).!.$ ~.{.].^.F | ",
"c /.(._.:.= = = '.<.[.}.D D E |.1.2.k ^.",
"i 3.` 4.5.E E <.6.% <.<.).7.8._ 9.0.1 -.",
"| a.L % u b.<.<.D > R <.<.c.d.e.~.f.g.F ",
"P h.i.j._ q r r r r r r k.q < t l.m.` n.",
"*.c o.p.N q.r.F P P P - S s.1.l t.L P *.",
"h u.. v.w.x.y.$ z.r x.^ C C A.B.x d h h ",
"] ] u.C.D.B.i ).u !.!.E.N F.B.x ^.] ] ] ",
"@ @ @ h i x B.B.G.F.A x B.t.F.- @ @ @ @ ",
"H.H.H.H.H.r.| L x t.I.J.. P q H.H.H.H.H.",
"                                        ",
"                                        ",
"                                        "};
