/* XPM */
static char * close_pressed_xpm[] = {
"20 25 114 2",
"  	c None",
". 	c #ECECEC",
"+ 	c #E6E6E6",
"@ 	c #D2D2D2",
"# 	c #C1C1C1",
"$ 	c #B5B5B5",
"% 	c #ADADAD",
"& 	c #AFAFAF",
"* 	c #B9B9B9",
"= 	c #C8C8C8",
"- 	c #DCDCDC",
"; 	c #EBEBEB",
"> 	c #DDDDDD",
", 	c #C4C4C4",
"' 	c #B2B2B2",
") 	c #AEAEAE",
"! 	c #ACACAC",
"~ 	c #B8B8B8",
"{ 	c #CECECE",
"] 	c #EAEAEA",
"^ 	c #D3D3D3",
"/ 	c #B6B6B6",
"( 	c #A9A9A9",
"_ 	c #A1A1A1",
": 	c #9C9C9C",
"< 	c #9B9B9B",
"[ 	c #A2A2A2",
"} 	c #ABABAB",
"| 	c #E2E2E2",
"1 	c #D5D5D5",
"2 	c #B3B3B3",
"3 	c #909090",
"4 	c #949494",
"5 	c #8B8B8B",
"6 	c #9E9E9E",
"7 	c #E3E3E3",
"8 	c #DFDFDF",
"9 	c #BCBCBC",
"0 	c #969696",
"a 	c #A6A6A6",
"b 	c #E0E0E0",
"c 	c #E4E4E4",
"d 	c #D8D8D8",
"e 	c #8E8E8E",
"f 	c #979797",
"g 	c #CCCCCC",
"h 	c #E8E8E8",
"i 	c #CDCDCD",
"j 	c #BABABA",
"k 	c #9A9A9A",
"l 	c #EEEEEE",
"m 	c #F6F6F6",
"n 	c #F5F5F5",
"o 	c #F4F4F4",
"p 	c #EFEFEF",
"q 	c #9D9D9D",
"r 	c #BFBFBF",
"s 	c #E9E9E9",
"t 	c #C5C5C5",
"u 	c #C2C2C2",
"v 	c #E0E2E6",
"w 	c #6F6F6F",
"x 	c #9F9F9F",
"y 	c #818181",
"z 	c #8F8F8F",
"A 	c #DADADA",
"B 	c #C9C9C9",
"C 	c #A0A0A0",
"D 	c #E5E5E5",
"E 	c #7B7B7B",
"F 	c #555555",
"G 	c #A5A5A5",
"H 	c #CFCFCF",
"I 	c #545454",
"J 	c #737373",
"K 	c #D0D0D0",
"L 	c #CBCBCB",
"M 	c #E7E7E7",
"N 	c #D1D1D1",
"O 	c #CACACA",
"P 	c #D9D9D9",
"Q 	c #616161",
"R 	c #595959",
"S 	c #D4D4D4",
"T 	c #626262",
"U 	c #5C5C5C",
"V 	c #B4B4B4",
"W 	c #BBBBBB",
"X 	c #929292",
"Y 	c #A3A3A3",
"Z 	c #C6C6C6",
"` 	c #535353",
" .	c #B7B7B8",
"..	c #5A5A5A",
"+.	c #BDBDBD",
"@.	c #BEBEBE",
"#.	c #989898",
"$.	c #E1E1E1",
"%.	c #B7BAC2",
"&.	c #A4A6AC",
"*.	c #B4B9C2",
"=.	c #F1F1F1",
"-.	c #DEDEDE",
";.	c #F3F3F3",
">.	c #F7F7F7",
",.	c #D7D7D7",
"'.	c #FCFCFC",
").	c #DBDBDB",
"!.	c #FDFDFD",
"~.	c #FAFAFA",
"{.	c #FEFEFE",
"].	c #FBFBFB",
"^.	c #B0B0B0",
"/.	c #F0F0F0",
"                                        ",
"                                        ",
"                                        ",
". . . . . + @ # $ % & * = - ; . . . . . ",
". . . ; > , ' ) ! % % % & ~ { + . . . . ",
". . ] ^ / ! % ( _ : < [ } % % # | . . . ",
"; ] 1 2 & % : 3 : [ _ 4 5 6 & ) # 7 ; ; ",
"] 8 9 $ & 0 a @ b c b d * e f $ $ g h ] ",
"h i j / k 2 l m n o n m p g 0 q j r - s ",
"b t u % a v w k ; ; ; x y p # z / # i h ",
"A B t C i D E F G 7 H I J c K 6 q L g M ",
"A N O q P P P Q I 9 F R g # j k e S K + ",
"> d K a S N N N T I U 9 V $ W < X > d c ",
"| b P Y L Z Z Z U ` R  .j j r k X D b 7 ",
"c s | < u r r ` ..& ` ` 9 +.@.: #.. + $.",
"7 l ; % 2 %.` ` W u &.` ` *.$ #.W =.] 8 ",
"-.. n 1 : O L L L L L L g O [ k ] ;.D > ",
"- c >.>.# Y { d ,.,.,.P i G X d '.l > - ",
"A ).; !.~.t Y $ = L t / q q 1 {.m $.A A ",
"P P ).. ].{.b 9 2 V V ^.# . {.m 7 P P P ",
"d d d A + m {.{./.. p n {.'.p b d d d d ",
"N N N N N ,.c l m '.~.o ; -.^ N N N N N ",
"                                        ",
"                                        ",
"                                        "};
