/* XPM */
static char * maximize_pressed_xpm[] = {
"20 25 98 2",
"  	c None",
". 	c #ECECEC",
"+ 	c #E6E6E6",
"@ 	c #D2D2D2",
"# 	c #C1C1C1",
"$ 	c #B5B5B5",
"% 	c #ADADAD",
"& 	c #AFAFAF",
"* 	c #B9B9B9",
"= 	c #C8C8C8",
"- 	c #DCDCDC",
"; 	c #EBEBEB",
"> 	c #DDDDDD",
", 	c #C4C4C4",
"' 	c #B2B2B2",
") 	c #AEAEAE",
"! 	c #ACACAC",
"~ 	c #B8B8B8",
"{ 	c #CECECE",
"] 	c #EAEAEA",
"^ 	c #D3D3D3",
"/ 	c #B6B6B6",
"( 	c #A9A9A9",
"_ 	c #A1A1A1",
": 	c #9C9C9C",
"< 	c #9B9B9B",
"[ 	c #A2A2A2",
"} 	c #ABABAB",
"| 	c #E2E2E2",
"1 	c #D5D5D5",
"2 	c #B3B3B3",
"3 	c #909090",
"4 	c #949494",
"5 	c #8B8B8B",
"6 	c #9E9E9E",
"7 	c #E3E3E3",
"8 	c #DFDFDF",
"9 	c #BCBCBC",
"0 	c #969696",
"a 	c #A6A6A6",
"b 	c #E0E0E0",
"c 	c #E4E4E4",
"d 	c #D8D8D8",
"e 	c #8E8E8E",
"f 	c #979797",
"g 	c #CCCCCC",
"h 	c #E8E8E8",
"i 	c #CDCDCD",
"j 	c #BABABA",
"k 	c #9A9A9A",
"l 	c #EEEEEE",
"m 	c #F6F6F6",
"n 	c #F5F5F5",
"o 	c #F4F4F4",
"p 	c #EFEFEF",
"q 	c #9D9D9D",
"r 	c #BFBFBF",
"s 	c #E9E9E9",
"t 	c #C5C5C5",
"u 	c #C2C2C2",
"v 	c #8F8F8F",
"w 	c #DADADA",
"x 	c #C9C9C9",
"y 	c #A0A0A0",
"z 	c #E5E5E5",
"A 	c #5B5B5B",
"B 	c #D0D0D0",
"C 	c #CBCBCB",
"D 	c #E7E7E7",
"E 	c #D1D1D1",
"F 	c #CACACA",
"G 	c #D9D9D9",
"H 	c #595959",
"I 	c #D4D4D4",
"J 	c #C7C7C7",
"K 	c #B4B4B4",
"L 	c #BBBBBB",
"M 	c #929292",
"N 	c #A3A3A3",
"O 	c #C6C6C6",
"P 	c #BEBEBE",
"Q 	c #989898",
"R 	c #E1E1E1",
"S 	c #F1F1F1",
"T 	c #DEDEDE",
"U 	c #585858",
"V 	c #F3F3F3",
"W 	c #F7F7F7",
"X 	c #D7D7D7",
"Y 	c #A5A5A5",
"Z 	c #FCFCFC",
"` 	c #DBDBDB",
" .	c #FDFDFD",
"..	c #FAFAFA",
"+.	c #FEFEFE",
"@.	c #FBFBFB",
"#.	c #B0B0B0",
"$.	c #F0F0F0",
"                                        ",
"                                        ",
"                                        ",
". . . . . + @ # $ % & * = - ; . . . . . ",
". . . ; > , ' ) ! % % % & ~ { + . . . . ",
". . ] ^ / ! % ( _ : < [ } % % # | . . . ",
"; ] 1 2 & % : 3 : [ _ 4 5 6 & ) # 7 ; ; ",
"] 8 9 $ & 0 a @ b c b d * e f $ $ g h ] ",
"h i j / k 2 l m n o n m p g 0 q j r - s ",
"b t u % a ] p ; ; ; ; ; p p # v / # i h ",
"w x t y i z A A A A A A A A B 6 q C g D ",
"w E F q G G A G G G w 1 g H j k e I B + ",
"> d B a I E A E @ B J 9 K H L < M > d c ",
"| b G N C O H O , r ~ ~ j H r k M z b 7 ",
"c s | < u r H P 9 9 9 P 9 H P : Q . + R ",
"7 l ; % 2 , H u # u u u u H $ Q L S ] 8 ",
"T . n 1 : F H H H H H H U U [ k ] V z > ",
"- c W W # N { d X X X G i Y M d Z l > - ",
"w ` ;  ...t N $ = C t / q q 1 +.m R w w ",
"G G ` . @.+.b 9 2 K K #.# . +.m 7 G G G ",
"d d d w + m +.+.$.. p n +.Z p b d d d d ",
"E E E E E X c l m Z ..o ; T ^ E E E E E ",
"                                        ",
"                                        ",
"                                        "};
