/* XPM */
static char * title_4_active_xpm[] = {
"28 25 122 2",
"  	c None",
". 	c #3C3C3C",
"+ 	c #CBCBCB",
"@ 	c #BEBEBE",
"# 	c #9F9F9F",
"$ 	c #4F5558",
"% 	c #414242",
"& 	c #3F4041",
"* 	c #767676",
"= 	c #ADADAD",
"- 	c #E5E5E5",
"; 	c #E8E8E8",
"> 	c #EBEBEB",
", 	c #ECECEC",
"' 	c #BBBBBB",
") 	c #9CA8AF",
"! 	c #535A5F",
"~ 	c #444749",
"{ 	c #484848",
"] 	c #8C8C8C",
"^ 	c #D2D2D2",
"/ 	c #E4E4E4",
"( 	c #B4B4B4",
"_ 	c #B3B3B3",
": 	c #B7B7B7",
"< 	c #A7A7A7",
"[ 	c #51595E",
"} 	c #D3D3D3",
"| 	c #E7E7E7",
"1 	c #A8A8A8",
"2 	c #AAAAAA",
"3 	c #ACACAC",
"4 	c #A2A2A2",
"5 	c #545D65",
"6 	c #44484A",
"7 	c #4F4F4F",
"8 	c #DBDBDB",
"9 	c #9D9D9D",
"0 	c #A3A3A3",
"a 	c #898989",
"b 	c #4B5259",
"c 	c #707070",
"d 	c #C5C5C5",
"e 	c #949494",
"f 	c #939393",
"g 	c #9A9A9A",
"h 	c #5F656B",
"i 	c #434649",
"j 	c #565656",
"k 	c #AFAFAF",
"l 	c #929292",
"m 	c #747577",
"n 	c #44484C",
"o 	c #444444",
"p 	c #A6A6A6",
"q 	c #D9D9D9",
"r 	c #EAEAEA",
"s 	c #7F7F7F",
"t 	c #7E7E7E",
"u 	c #828282",
"v 	c #717171",
"w 	c #49535B",
"x 	c #848484",
"y 	c #D8D8D8",
"z 	c #E9E9E9",
"A 	c #757575",
"B 	c #747474",
"C 	c #797979",
"D 	c #7A7A7A",
"E 	c #475057",
"F 	c #8F8F8F",
"G 	c #DEDEDE",
"H 	c #6C6C6C",
"I 	c #6B6B6B",
"J 	c #737373",
"K 	c #444B51",
"L 	c #434343",
"M 	c #959595",
"N 	c #E0E0E0",
"O 	c #636363",
"P 	c #646464",
"Q 	c #666666",
"R 	c #42484D",
"S 	c #424242",
"T 	c #9C9C9C",
"U 	c #E2E2E2",
"V 	c #E6E6E6",
"W 	c #5B5B5B",
"X 	c #5C5C5C",
"Y 	c #57637A",
"Z 	c #616161",
"` 	c #3F4245",
" .	c #4E4E4E",
"..	c #545454",
"+.	c #555555",
"@.	c #4F6185",
"#.	c #606060",
"$.	c #CECECE",
"%.	c #E3E3E3",
"&.	c #838383",
"*.	c #DCDCDC",
"=.	c #E1E1E1",
"-.	c #4B4B4B",
";.	c #575757",
">.	c #3F4346",
",.	c #454545",
"'.	c #DFDFDF",
").	c #494949",
"!.	c #505050",
"~.	c #5A5A5A",
"{.	c #D1D1D1",
"].	c #DDDDDD",
"^.	c #4C4C4C",
"/.	c #3F4957",
"(.	c #969696",
"_.	c #515151",
":.	c #CDCDCD",
"<.	c #DADADA",
"[.	c #8A8A8A",
"}.	c #D0D0D0",
"|.	c #4D4D4D",
"1.	c #3E3E3E",
". . . . . . . . . . . . . . . . . . . . . . . . . . . . ",
"+ @ # $ % & * = - ; > , , , , , , , , , , , , , , , , > ",
"@ @ @ @ ' ) ! ~ { ] ^ / > , , , , , , , , , , , , , , , ",
"( _ _ ( _ ( : < [ ~ { ] } | , , , , , , , , , , , , , , ",
"1 1 1 1 1 1 2 1 3 4 5 6 7 4 8 > , , , , , , , , , , , , ",
"9 9 9 9 9 9 9 9 9 9 0 a b & c d - , , , , , , , , , , , ",
"e f f e f f e f e e f f g h i j k - , , , , , , , , , > ",
"a a a a a a a a a a a a a l m n o p q > > > > > > > > r ",
"s t s t t t t t t t t s t s u v w o x y r r r r r r r z ",
"A A A B A A A A A B B A B B A C D E . F G z z z z z z ; ",
"H I H I I I I H I I I I I I I I I J K L M N ; ; ; ; ; | ",
"O O O O O O O O O O O O O O P P P Q Q R S T U | | | | V ",
"W X W W X X X X W W W W W W X X X W Y Z `  .( - - - - / ",
"........+...+.+.......................@.Z . #.$.%.%.%.%.",
"7 7 7  . .7 7 7 7 7 7 7 7  .7 7 7  .7  .#.... &.*.=.=.=.",
"-.-.-.-.-.-.-.-.-.-.-.-.-.-.-.-.-.-.-.-.-.;.>.,.3 N N '.",
").).).).).).).).).).).).).).).).).).).).).-.!.. ~.{.G ].",
").).).).).).).).).).).).).).).).).).).).).).^./.. (.].*.",
").).).).).).).).).).).).).).).).).).).).).).)._.. 7 :.<.",
").).).).).).).).).).).).).).).).).).).).).).).-.... [.q ",
").).).).).).).).).).).).).).).).).).).).).).).).!.. -.}.",
").).).).).).).).).).).).).).).).).).).).).).).).).7 . g ",
").).).).).).).).).).).).).).).).).).).).).).).).).-.. j ",
").).).).).).).).).).).).).).).).).).).).).).).).).).|.1.",
". . . . . . . . . . . . . . . . . . . . . . . . . . . . "};
