/* XPM */
static char * title_3_active_xpm[] = {
"8 25 17 1",
" 	c None",
".	c #3C3C3C",
"+	c #C6C6C6",
"@	c #BEBEBE",
"#	c #B4B4B4",
"$	c #A8A8A8",
"%	c #9D9D9D",
"&	c #939393",
"*	c #878787",
"=	c #7E7E7E",
"-	c #757575",
";	c #6B6B6B",
">	c #636363",
",	c #5B5B5B",
"'	c #545454",
")	c #4E4E4E",
"!	c #494949",
"........",
"++++++++",
"@@@@@@@@",
"########",
"$$$$$$$$",
"%%%%%%%%",
"&&&&&&&&",
"********",
"========",
"--------",
";;;;;;;;",
">>>>>>>>",
",,,,,,,,",
"''''''''",
"))))))))",
"!!!!!!!!",
"!!!!!!!!",
"!!!!!!!!",
"!!!!!!!!",
"!!!!!!!!",
"!!!!!!!!",
"!!!!!!!!",
"!!!!!!!!",
"!!!!!!!!",
"........"};
