/* XPM */
static char * top_left_active_xpm[] = {
"6 42 32 1",
" 	c None",
".	c #3C3C3C",
"+	c #C6C6C6",
"@	c #BEBEBE",
"#	c #B4B4B4",
"$	c #A8A8A8",
"%	c #9D9D9D",
"&	c #939393",
"*	c #878787",
"=	c #7E7E7E",
"-	c #757575",
";	c #6B6B6B",
">	c #636363",
",	c #5B5B5B",
"'	c #545454",
")	c #4E4E4E",
"!	c #494949",
"~	c #4B4B4B",
"{	c #4C4C4C",
"]	c #4F4F4F",
"^	c #525252",
"/	c #515151",
"(	c #585858",
"_	c #575757",
":	c #5A5A5A",
"<	c #5C5C5C",
"[	c #5F5F5F",
"}	c #606060",
"|	c #616161",
"1	c #646464",
"2	c #666666",
"3	c #3E4352",
"     .",
"   ..+",
"  .@@@",
" .####",
" .$$$$",
".%%%%%",
".&&&&&",
".*****",
".=====",
".-----",
".;;;;;",
".>>>>>",
".,,,,,",
".'''''",
".)))))",
".!!!!!",
".!!!!!",
".!!!!!",
".!!!!!",
".!!!!!",
".!!!!!",
".!!!!!",
".!!!!!",
".!!!!!",
".!!!!.",
".!!!!.",
".~{~~.",
".]]]].",
".^///.",
".''''.",
".(___.",
".,:::.",
".<<<<.",
".[}[[.",
".||||.",
".1111.",
".1122.",
".2222.",
".2222.",
".2222.",
".2122.",
".333.."};
